<svg xmlns="http://www.w3.org/2000/svg" viewBox="0 0 400 400" width="400" height="400"><defs><radialGradient id="mbg" cx="0.35" cy="0.3" r="0.9"><stop offset="0" stop-color="#fbfbf9"/><stop offset="1" stop-color="#e9eae7"/></radialGradient><radialGradient id="champagne-1" cx="0.4" cy="0.35" r="0.75"><stop offset="0" stop-color="#ffffff"/><stop offset="1" stop-color="#e3e4e1"/></radialGradient><radialGradient id="champagne-2" cx="0.4" cy="0.35" r="0.75"><stop offset="0" stop-color="rgba(255,255,255,0.9)"/><stop offset="1" stop-color="rgba(215,225,232,0.7)"/></radialGradient><radialGradient id="champagne-3" cx="0.4" cy="0.35" r="0.75"><stop offset="0" stop-color="#fbf1c0"/><stop offset="1" stop-color="#e9d27a"/></radialGradient></defs><rect width="400" height="400" fill="url(#mbg)"/><path d="M-70.8 366.9 Q55.4 452.4 135.5 446.5 Q215.5 440.6 244.2 456 Q272.9 471.3 341.7 511.9" fill="none" stroke="rgba(140,146,156,0.106)" stroke-width="2.1"/><path d="M-29 -26.1 Q68.3 -61.8 174.8 4.7 Q281.4 71.3 388.2 100.1 Q495.1 129 535.1 192.6" fill="none" stroke="rgba(140,146,156,0.159)" stroke-width="1.7"/><path d="M161.8 190.8 Q313 198.7 414.9 241.2 Q516.8 283.6 612.6 271.8 Q708.4 260 806.8 319.1" fill="none" stroke="rgba(140,146,156,0.110)" stroke-width="2.3"/><path d="M188.8 378.5 Q289.3 356.4 325.4 397.5 Q361.4 438.7 451.3 441 Q541.1 443.3 568.8 446.5" fill="none" stroke="rgba(140,146,156,0.121)" stroke-width="1.2"/><path d="M133.7 359 Q294.4 476.8 357.7 460 Q421 443.3 521.7 423 Q622.5 402.8 664.5 424.3" fill="none" stroke="rgba(140,146,156,0.090)" stroke-width="0.9"/><path d="M215.3 -14.7 Q292.4 58.9 359 34.2 Q425.6 9.4 520.8 23.7 Q615.9 38.1 714.4 62.9" fill="none" stroke="rgba(140,146,156,0.155)" stroke-width="2.2"/><path d="M32.2 180.7 Q230.1 173.2 312 215.1 Q393.9 257 496.6 296.1 Q599.3 335.2 689.4 391.1" fill="none" stroke="rgba(140,146,156,0.145)" stroke-width="2"/><path d="M-36 73.4 Q25.2 72.3 88.9 110.5 Q152.5 148.7 203.5 163.1 Q254.5 177.4 326.5 217.4" fill="none" stroke="rgba(140,146,156,0.136)" stroke-width="0.6"/><circle cx="206" cy="210" r="150" fill="rgba(40,45,55,0.16)"/><circle cx="200" cy="200" r="150" fill="url(#champagne-1)"/><circle cx="200" cy="200" r="140" fill="none" stroke="rgba(120,125,135,0.25)" stroke-width="1.5"/><circle cx="200" cy="200" r="76" fill="url(#champagne-2)" stroke="rgba(150,165,180,0.8)" stroke-width="3"/><circle cx="200" cy="200" r="60" fill="url(#champagne-3)" opacity="0.95"/><circle cx="247.9" cy="205.8" r="2.1" fill="#fffbe8"/><circle cx="194.3" cy="159.6" r="1.9" fill="#fffbe8"/><circle cx="227.6" cy="219.2" r="2.2" fill="#fffbe8"/><circle cx="190.3" cy="165.8" r="2.5" fill="#fffbe8"/><circle cx="189.4" cy="164.9" r="0.8" fill="rgba(255,255,255,0.45)"/><circle cx="213.2" cy="210.4" r="2" fill="#fffbe8"/><circle cx="235.4" cy="233.9" r="2.6" fill="#fffbe8"/><circle cx="234.5" cy="233" r="0.8" fill="rgba(255,255,255,0.45)"/><circle cx="237.5" cy="191.7" r="1.9" fill="#fffbe8"/><circle cx="245.9" cy="180.6" r="2.3" fill="#fffbe8"/><circle cx="162.5" cy="199.1" r="2.3" fill="#fffbe8"/><circle cx="174.5" cy="240.3" r="2.4" fill="#fffbe8"/><circle cx="211.7" cy="182.1" r="2.5" fill="#fffbe8"/><circle cx="210.8" cy="181.3" r="0.8" fill="rgba(255,255,255,0.45)"/><circle cx="228.5" cy="176.5" r="2.6" fill="#fffbe8"/><circle cx="227.6" cy="175.6" r="0.8" fill="rgba(255,255,255,0.45)"/><circle cx="154.6" cy="182" r="2" fill="#fffbe8"/><circle cx="207.9" cy="219.6" r="2.4" fill="#fffbe8"/><circle cx="204.6" cy="172" r="1.7" fill="#fffbe8"/><circle cx="180.3" cy="235.1" r="2" fill="#fffbe8"/><circle cx="155" cy="216.1" r="2.3" fill="#fffbe8"/><circle cx="226.6" cy="177.7" r="1.8" fill="#fffbe8"/><circle cx="212.5" cy="190.6" r="1.9" fill="#fffbe8"/><circle cx="169.8" cy="197.1" r="1.8" fill="#fffbe8"/><circle cx="186.2" cy="187.8" r="1.9" fill="#fffbe8"/><circle cx="182.3" cy="168.7" r="1.7" fill="#fffbe8"/><circle cx="217" cy="171.3" r="2.5" fill="#fffbe8"/><circle cx="216.1" cy="170.5" r="0.8" fill="rgba(255,255,255,0.45)"/><circle cx="153.4" cy="185.4" r="2.6" fill="#fffbe8"/><circle cx="152.5" cy="184.5" r="0.8" fill="rgba(255,255,255,0.45)"/><path d="M145.28 145.28 A76 76 0 0 1 200 124" fill="none" stroke="rgba(255,255,255,0.9)" stroke-width="5" stroke-linecap="round"/></svg>